<?xml version="1.0" encoding="utf-8"?>
<!-- Generator: Adobe Illustrator 24.0.1, SVG Export Plug-In . SVG Version: 6.00 Build 0)  -->
<svg version="1.1" id="Layer_1" xmlns="http://www.w3.org/2000/svg" xmlns:xlink="http://www.w3.org/1999/xlink" x="0px" y="0px"
	 viewBox="0 0 2000 938.24" style="enable-background:new 0 0 2000 938.24;" xml:space="preserve">
<style type="text/css">
	.st0{fill:#4A0404;}
	.st1{fill:#B7C0C4;}
</style>
<rect x="-15.49" y="-15.02" transform="matrix(-1 -3.116064e-07 3.116064e-07 -1 1999.9999 938.2442)" class="st0" width="2030.98" height="968.29"/>
<g>
	<g>
		<path class="st1" d="M370.79,274.78l-11.44,0.9c-28.56,2.17-57.79,5.46-87.02,9.94L268,286.3c-12.56,1.87-24.9,3.96-36.71,6.28
			l0,0c-2.09,0.37-4.19,0.82-6.28,1.27c0.37,3.14,0.82,6.13,1.12,9.35c5.08,44.63,5.16,89.41,5.16,91.51v182.86
			c0,25.94,14.05,50.09,36.71,62.8l129.86,73.34V437.16l-30.43-30.43l30.43-30.43V273.14c0,0-0.6,0-1.79,0.07
			C387.02,273.66,378.72,274.26,370.79,274.78z M361.15,650.75l-77.68-43.81c-9.57-5.31-15.48-15.48-15.48-26.39V427.97l3.14-0.6
			c16-2.77,32.07-5.16,47.7-7.1l9.05-1.12l33.27,33.27V650.75z M361.15,361.43l-19.29,19.36l-9.72,0.97
			c-11.74,1.27-24.15,2.84-37.01,4.64l-9.05,1.35c-3.29,0.52-6.43,1.05-9.64,1.57l-8.45,1.42v-67.21l3.14-0.52
			c27.74-4.49,56.67-7.92,85.97-10.24l4.04-0.3V361.43z"/>
		<path class="st1" d="M695.25,292.58c-8.75-1.72-17.57-3.21-26.32-4.64l-3.06-0.52c-2.39-0.37-4.86-0.75-7.33-1.12l-4.34-0.67
			c-30.28-4.56-60.18-8-88.74-10.09c-11.29-0.97-23.33-1.79-36.78-2.39V713.7l36.71-20.63V415.86l4.04,0.37
			c29.01,2.62,57.94,6.35,86.05,11.21l3.07,0.52v212.39c22.65-12.78,36.71-36.86,36.71-62.87V394.7c0-2.09,0.07-46.87,5.16-91.51
			c0.3-3.21,0.75-6.21,1.12-9.35C699.44,293.4,697.35,292.95,695.25,292.58L695.25,292.58z M658.55,390.74l-4.34-0.75
			c-27.89-4.56-56.59-8.22-85.38-10.69l-3.44-0.3v-66.61l4.04,0.3c29.31,2.39,58.24,5.83,85.97,10.32l3.14,0.52V390.74z"/>
		<path class="st1" d="M619.44,196.59c-15.45-1.78-30.84-3.27-46.11-4.46c-1.62-0.13-3.26-0.3-4.87-0.41
			c-0.61-0.04-1.22-0.09-1.84-0.13c-0.38-0.03-0.77-0.07-1.15-0.09c-10.7-0.92-20.57-1.51-30.22-1.89
			c-0.35-0.02-0.68-0.04-1.03-0.06c-4.14-0.27-8.41-0.4-12.64-0.58c-14.01-0.7-28.6-1.12-43.71-1.28c-0.23,0-0.45-0.01-0.68-0.01
			c-4.64-0.07-9.27-0.07-13.91-0.07l0,0h0c-4.64,0-9.27,0-13.91,0.07c-0.24,0-0.47,0.01-0.7,0.01c-4.34,0.05-8.62,0.12-12.89,0.21
			c-0.03,0-0.06,0-0.09,0c-0.01,0-0.02,0-0.02,0c-9.91,0.2-19.56,0.53-28.95,0.99c-4.82,0.19-9.67,0.35-14.38,0.66
			c-0.47,0.02-0.92,0.05-1.39,0.08c-9.58,0.38-19.3,0.96-29.71,1.87c-1.05,0.07-2.09,0.15-3.14,0.22c-2.34,0.16-4.7,0.39-7.04,0.59
			c-14.75,1.16-29.56,2.61-44.38,4.32c-67.4,7.49-110.81,17.06-110.81,17.06c8.52,4.11,15.03,16.75,20.04,33.49
			c5.46-0.97,10.62-1.87,15.4-2.62l0.1-0.02c11.04-2.01,22.67-3.88,36.61-5.96c32.07-4.71,63.47-8.22,93.15-10.39
			c11.96-0.97,24-1.72,36.71-2.32c13.68-0.67,28.18-1.12,43.29-1.27l3.81-0.07v515.77l18.17,10.32l18.47-10.39v-515.7l3.81,0.07
			c15.18,0.15,29.75,0.6,43.29,1.27c12.78,0.6,24.82,1.35,36.71,2.32c29.68,2.17,61,5.68,93.15,10.39
			c14.01,2.09,25.65,3.95,36.61,5.96l0.1,0.02c4.78,0.75,9.94,1.64,15.4,2.62c5.01-16.75,11.51-29.38,20.04-33.49
			C730.69,213.7,687.1,204.09,619.44,196.59z"/>
	</g>
	<g>
		<path class="st1" d="M871.06,348.25c0-39.24,0-46.38-0.59-54.41c-0.59-8.62-2.08-13.38-10.7-14.57c-2.08-0.3-6.54-0.59-8.92-0.59
			c-0.9,0-2.08-0.59-2.08-1.49c0-1.49,1.19-2.08,4.16-2.08c11.89,0,28.84,0.59,30.33,0.59c6.25,0,18.43-0.59,30.62-0.59
			c43.71,0,55.01,25.27,55.01,38.65c0,19.92-13.09,32.41-26.46,44.3c19.92,5.95,46.08,24.08,46.08,52.62
			c0,28.25-21.11,56.2-65.71,56.2c-4.76,0-14.27-0.3-22.59-0.89c-8.33-0.3-15.76-0.59-16.95-0.59c-1.48,0-18.43,0.89-26.46,0.89
			c-2.68,0-4.16-0.59-4.16-2.08c0-0.89,0.59-1.48,2.08-1.48c2.37,0,5.65-0.89,8.03-1.19c5.05-0.89,5.65-6.54,6.83-13.98
			c1.49-10.41,1.49-30.33,1.49-54.71V348.25z M893.65,353.6c0,1.78,0.59,2.38,1.78,2.68c1.49,0.3,6.25,1.19,16.05,1.19
			c14.57,0,20.22-0.59,25.57-6.54c5.65-6.24,10.11-14.87,10.11-27.06c0-19.33-10.7-40.73-36.87-40.73c-2.97,0-9.21,0.3-13.38,1.19
			c-2.38,0.59-3.27,1.19-3.27,2.67V353.6z M893.65,381.55c0,19.62,0,49.95,0.3,53.82c0.89,12.19,0.89,15.16,8.92,19.03
			c7.14,3.27,18.14,3.57,22.89,3.57c17.25,0,38.35-6.54,38.35-38.95c0-11.3-4.46-33-24.97-46.09c-8.92-5.65-17.25-5.35-23.49-6.54
			c-3.27-0.59-16.36-0.59-20.52-0.59c-0.89,0-1.48,0.59-1.48,1.78V381.55z"/>
		<path class="st1" d="M1100.95,280.17c3.27-8.33,4.46-9.81,6.25-9.81c2.68,0,3.57,3.57,6.25,9.21
			c4.76,10.7,46.68,115.06,62.73,153.42c9.52,22.6,16.65,25.87,22.3,27.66c3.86,1.19,7.73,1.48,10.41,1.48
			c1.48,0,3.27,0.59,3.27,2.08c0,1.49-2.97,2.08-5.95,2.08c-3.87,0-23.19,0-41.33-0.59c-5.05-0.3-9.21-0.3-9.21-1.79
			c0-1.19,0.59-1.19,1.78-1.78c1.49-0.59,4.16-2.68,2.38-6.84l-23.49-57.98c-0.6-1.19-0.9-1.49-2.38-1.49h-60.36
			c-1.19,0-2.08,0.6-2.68,2.08l-14.86,40.44c-2.38,6.24-3.86,12.49-3.86,16.94c0,5.05,4.46,6.84,8.92,6.84h2.37
			c2.08,0,2.68,0.89,2.68,2.08c0,1.49-1.48,2.08-3.87,2.08c-6.24,0-20.51-0.89-23.49-0.89c-2.68,0-15.76,0.89-26.46,0.89
			c-3.27,0-5.05-0.59-5.05-2.08c0-1.19,1.19-2.08,2.37-2.08c1.79,0,5.65-0.3,7.73-0.59c11.89-1.49,16.95-10.41,22-23.19
			L1100.95,280.17z M1130.09,385.42c1.19,0,1.19-0.59,0.89-1.78l-25.87-69.27c-1.48-3.87-2.97-3.87-4.46,0l-24.38,69.27
			c-0.3,1.19,0,1.78,0.89,1.78H1130.09z"/>
		<path class="st1" d="M1264.16,348.25c0-39.24,0-46.38-0.59-54.41c-0.59-8.62-2.08-12.79-10.7-13.98c-2.08-0.3-6.54-0.59-8.92-0.59
			c-0.89,0-2.08-1.19-2.08-2.08c0-1.49,1.19-2.08,4.17-2.08c11.89,0,29.43,0.59,30.92,0.59c2.67,0,24.67-0.59,32.7-0.59
			c16.65,0,35.09,1.49,48.76,11c6.54,4.76,18.14,16.95,18.14,34.49c0,18.73-7.73,36.87-32.11,57.68
			c21.41,26.76,39.55,49.65,54.71,65.41c13.97,14.27,22.6,16.65,29.13,17.54c5.06,0.89,7.74,0.89,9.22,0.89s2.38,1.19,2.38,2.08
			c0,1.49-1.49,2.08-6.25,2.08h-16.35c-14.87,0-21.41-1.48-27.95-5.05c-11.3-5.95-20.81-18.14-35.68-37.17
			c-11-13.68-22.6-30.03-28.25-36.87c-1.19-1.19-1.78-1.49-3.56-1.49l-33.3-0.59c-1.19,0-1.79,0.59-1.79,2.08v5.95
			c0,24.38,0,44,1.19,54.41c0.89,7.43,2.37,12.19,10.4,13.38c3.57,0.59,9.22,1.19,11.6,1.19c1.79,0,2.08,1.19,2.08,2.08
			c0,1.19-1.19,2.08-4.16,2.08c-14.27,0-30.92-0.89-32.11-0.89c-0.3,0-17.83,0.89-25.86,0.89c-2.68,0-4.16-0.59-4.16-2.08
			c0-0.89,0.59-2.08,2.08-2.08c2.38,0,5.65-0.59,8.03-1.19c5.05-1.19,5.65-5.95,6.84-13.38c1.48-10.41,1.48-30.33,1.48-54.71V348.25
			z M1286.76,369.66c0,1.48,0.59,2.38,1.79,3.27c3.86,2.08,17.24,3.87,28.84,3.87c6.25,0,13.38-0.3,19.62-4.46
			c8.92-5.95,15.76-19.33,15.76-38.65c0-31.52-17.25-49.65-45.19-49.65c-7.73,0-16.05,0.89-18.73,1.48
			c-1.19,0.6-2.08,1.49-2.08,2.97V369.66z"/>
		<path class="st1" d="M1526.68,392.85c0,24.38,0,44.3,1.19,54.71c0.89,7.43,2.08,12.19,10.1,13.38c3.57,0.59,9.52,1.19,11.89,1.19
			c1.79,0,2.08,1.19,2.08,2.08c0,1.19-1.19,2.08-4.16,2.08c-14.27,0-30.92-0.89-32.41-0.89c-1.19,0-19.33,0.89-27.06,0.89
			c-2.97,0-4.16-0.59-4.16-2.08c0-0.89,0.59-1.78,2.08-1.78c2.37,0,5.35-0.59,7.73-1.19c5.35-1.19,6.84-6.25,7.73-13.68
			c1.19-10.41,1.19-30.33,1.19-54.71V286.71l-37.76,0.59c-16.35,0.3-22.6,2.08-26.46,8.03c-2.97,4.46-3.27,6.24-4.16,8.03
			c-0.59,2.08-1.48,2.38-2.68,2.38c-0.59,0-1.78-0.59-1.78-2.08c0-2.67,5.35-25.27,5.65-27.35c0.6-1.49,1.79-4.76,2.68-4.76
			c1.79,0,4.46,2.08,11.6,2.97c7.43,0.89,17.54,1.19,20.52,1.19h98.71c8.62,0,14.56-0.59,18.73-1.19c3.86-0.6,6.25-1.19,7.43-1.19
			c1.19,0,1.19,1.49,1.19,2.97c0,7.73-0.9,25.86-0.9,28.84c0,2.08-1.19,3.27-2.37,3.27s-1.79-0.89-2.08-4.46l-0.3-2.67
			c-0.89-7.73-6.54-13.38-31.51-13.98l-32.71-0.59V392.85z"/>
		<path class="st1" d="M1692.95,280.17c3.27-8.33,4.46-9.81,6.24-9.81c2.68,0,3.57,3.57,6.25,9.21
			c4.76,10.7,46.68,115.06,62.74,153.42c9.51,22.6,16.65,25.87,22.29,27.66c3.86,1.19,7.73,1.48,10.41,1.48
			c1.49,0,3.27,0.59,3.27,2.08c0,1.49-2.97,2.08-5.95,2.08c-3.87,0-23.19,0-41.32-0.59c-5.06-0.3-9.22-0.3-9.22-1.79
			c0-1.19,0.59-1.19,1.79-1.78c1.48-0.59,4.16-2.68,2.37-6.84l-23.49-57.98c-0.59-1.19-0.89-1.49-2.38-1.49h-60.35
			c-1.19,0-2.08,0.6-2.68,2.08l-14.87,40.44c-2.38,6.24-3.86,12.49-3.86,16.94c0,5.05,4.46,6.84,8.92,6.84h2.38
			c2.08,0,2.68,0.89,2.68,2.08c0,1.49-1.49,2.08-3.86,2.08c-6.25,0-20.52-0.89-23.49-0.89c-2.67,0-15.76,0.89-26.46,0.89
			c-3.27,0-5.06-0.59-5.06-2.08c0-1.19,1.19-2.08,2.38-2.08c1.78,0,5.65-0.3,7.73-0.59c11.89-1.49,16.94-10.41,22-23.19
			L1692.95,280.17z M1722.08,385.42c1.19,0,1.19-0.59,0.9-1.78l-25.87-69.27c-1.48-3.87-2.97-3.87-4.46,0l-24.38,69.27
			c-0.3,1.19,0,1.78,0.9,1.78H1722.08z"/>
		<g>
			<path class="st1" d="M914.84,610.18c-0.78,0-1.24,0.78-1.39,1.7c-0.47,2.64-1.55,5.43-3.26,7.45c-3.25,3.88-9.3,4.03-16.44,4.03
				c-10.7,0-15.98-0.93-18.14-3.1c-2.49-2.33-2.8-10.24-2.8-29.63v-23.57c0-20.48,0-24.2,0.16-28.39c0.3-4.65,1.08-6.67,5.12-7.44
				c1.55-0.16,3.56-0.31,4.5-0.31c0.46,0,1.09-0.46,1.09-0.93c0-0.78-0.78-1.09-2.17-1.09c-4.19,0-14.43,0.31-15.04,0.31
				c-0.78,0-9.31-0.31-15.51-0.31c-1.55,0-2.17,0.31-2.17,1.09c0,0.46,0.62,1.08,1.09,1.08c1.24,0,3.57,0.16,4.65,0.31
				c4.5,0.62,5.28,2.8,5.59,7.29c0.31,4.19,0.31,7.91,0.31,28.39v23.27c0,12.72,0,23.11-0.78,28.53c-0.62,3.88-0.94,6.36-3.57,6.99
				c-1.24,0.3-2.94,0.61-4.19,0.61c-0.78,0-1.08,0.62-1.08,1.09c0,0.78,0.78,1.09,2.17,1.09c2.17,0,5.12-0.15,7.91-0.31
				c2.64-0.15,4.96-0.15,5.59-0.15c4.03,0,8.68,0.15,14.89,0.31c6.35,0.3,13.96,0.46,23.73,0.46c7.29,0,7.75-0.46,8.68-3.57
				c1.09-3.88,2.02-11.78,2.02-13.18C915.77,610.79,915.46,610.18,914.84,610.18z"/>
			<path class="st1" d="M1001.48,527.03c-37.7,0-54.14,30.25-54.14,51.5c0,23.73,15.98,51.8,53.36,51.8
				c32.88,0,54.75-24.35,54.75-53.82C1055.45,545.8,1032.18,527.03,1001.48,527.03z M1004.58,624.91
				c-24.67,0-43.12-19.23-43.12-49.95c0-28.69,16.44-42.96,39.25-42.96c21.56,0,40.8,16.59,40.8,48.24
				C1041.5,618.39,1016.83,624.91,1004.58,624.91z"/>
			<path class="st1" d="M1193.92,579.15c-4.19,0-12.73,0.31-13.34,0.31c-0.78,0-9.93-0.31-16.13-0.31c-1.55,0-2.17,0.16-2.17,1.09
				c0,0.46,0.62,1.09,1.09,1.09c1.24,0,3.56,0.15,4.65,0.31c5.59,1.09,5.89,2.64,5.89,13.34v22.8c0,2.48-1.08,3.1-2.79,4.03
				c-3.56,2.01-9.93,2.49-14.74,2.49c-12.56,0-24.03-3.73-34.9-13.81c-4.81-4.49-14.43-17.83-14.43-36.45
				c0-15.35,5.59-27.14,13.5-33.19c10.39-7.91,20.32-8.53,28.53-8.53c17.69,0,28.08,5.28,31.49,10.24c2.17,3.1,2.95,6.98,3.1,8.68
				c0,1.25,0.15,2.02,0.93,2.02c0.94,0,1.55-0.62,1.55-2.8c0-13.18,0.78-16.75,0.78-18.62c0-0.61-0.31-1.24-1.71-1.24
				c-3.41,0-8.22-0.78-11.01-1.39c-2.64-0.62-12.25-2.17-20.94-2.17c-10.39,0-24.04,0.93-36.3,8.38
				c-12.09,7.29-22.8,22.18-22.8,43.27c0,16.44,7.9,30.56,16.28,37.54c15.2,12.88,34.59,14.12,44.98,14.12
				c7.91,0,20.32-1.39,29.01-5.89c1.7-0.93,1.86-1.09,1.86-7.14v-14.73c0-5.59,0-9.46,0.15-13.65c0.31-4.65,1.4-6.67,5.12-7.29
				c1.55-0.31,2.48-0.31,3.41-0.31c0.46,0,1.08-0.62,1.08-1.09C1196.08,579.31,1195.47,579.15,1193.92,579.15z"/>
			<path class="st1" d="M1268.1,626.46c-1.25,0-4.19-0.31-6.21-0.61c-4.03-0.62-4.49-3.1-4.96-6.99
				c-0.61-5.43-0.61-15.82-0.61-28.53v-23.27c0-20.48,0-24.2,0.15-28.39c0.31-4.65,1.09-6.51,4.81-7.29
				c1.55-0.31,2.48-0.31,3.41-0.31c0.46,0,1.08-0.61,1.08-1.08c0-0.78-0.62-1.09-2.17-1.09c-4.19,0-13.03,0.31-13.65,0.31
				c-0.78,0-9.3-0.31-13.8-0.31c-1.55,0-2.17,0.31-2.17,1.09c0,0.46,0.46,1.08,1.09,1.08c0.93,0,2.64,0.16,4.19,0.47
				c2.95,0.61,4.04,2.64,4.34,7.13c0.31,4.19,0.31,7.91,0.31,28.39v23.27c0,12.72-0.15,23.11-0.78,28.53
				c-0.46,3.88-0.93,6.36-3.56,6.99c-1.24,0.3-2.95,0.61-4.19,0.61c-0.78,0-1.09,0.62-1.09,1.09c0,0.78,0.78,1.09,2.17,1.09
				c4.19,0,12.72-0.46,13.49-0.46c0.62,0,9.46,0.46,17.06,0.46c1.55,0,2.17-0.46,2.17-1.09
				C1269.18,627.08,1268.88,626.46,1268.1,626.46z"/>
			<path class="st1" d="M1343.64,571.39l-3.88-2.64c-13.49-9.15-17.68-13.96-17.68-22.33c0-9.31,8.22-14.28,18.14-14.28
				c12.25,0,16.75,4.96,17.69,6.51c0.78,1.4,1.86,4.96,2.01,6.51c0.15,1.09,0.31,1.71,1.24,1.71c0.94,0,1.09-0.94,1.09-2.95
				c0-8.99,0.62-13.34,0.62-13.96c0-0.78-0.31-0.94-1.4-0.94s-2.17,0-4.81-0.61c-3.25-0.78-8.68-1.56-14.12-1.56
				c-17.99,0-30.25,9.31-30.25,24.82c0,9.15,4.81,17.23,19.54,28.23l6.21,4.66c12.09,8.99,17.22,13.49,17.22,22.96
				c0,9.93-6.98,17.53-20.48,17.53c-9.15,0-19.39-3.41-21.56-13.03c-0.47-1.86-0.47-3.72-0.47-4.81s-0.46-1.55-1.24-1.55
				c-0.78,0-1.09,0.78-1.09,2.17c-0.15,2.17-0.78,7.44-0.78,13.96c0,3.57,0.16,4.04,2.02,4.96c5.58,2.64,13.49,3.56,19.85,3.56
				c7.44,0,15.97-0.93,21.72-4.65c9.77-6.35,12.72-14.73,12.72-22.49C1365.98,591.87,1360.24,582.72,1343.64,571.39z"/>
			<path class="st1" d="M1489.22,527.96c-0.62,0-1.86,0.31-3.88,0.62c-2.17,0.31-5.28,0.62-9.78,0.62h-51.5
				c-1.55,0-6.82-0.16-10.7-0.62c-3.72-0.46-5.11-1.55-6.04-1.55c-0.47,0-1.09,1.7-1.4,2.48c-0.16,1.09-2.95,12.88-2.95,14.28
				c0,0.78,0.62,1.09,0.94,1.09c0.61,0,1.08-0.16,1.39-1.25c0.46-0.93,0.62-1.86,2.17-4.19c2.01-3.1,5.28-4.03,13.8-4.19l19.7-0.3
				v55.38c0,12.72,0,23.11-0.62,28.53c-0.46,3.88-1.24,6.51-4.03,7.14c-1.25,0.31-2.8,0.62-4.04,0.62c-0.78,0-1.09,0.46-1.09,0.93
				c0,0.78,0.62,1.09,2.17,1.09c4.03,0,13.49-0.46,14.12-0.46c0.78,0,9.46,0.46,16.91,0.46c1.55,0,2.17-0.46,2.17-1.09
				c0-0.46-0.16-1.09-1.09-1.09c-1.24,0-4.34-0.31-6.2-0.61c-4.19-0.62-4.81-3.1-5.28-6.99c-0.62-5.43-0.62-15.82-0.62-28.53v-55.38
				l17.07,0.3c13.03,0.31,15.98,3.26,16.44,7.3l0.15,1.39c0.16,1.86,0.47,2.33,1.09,2.33c0.62,0,1.24-0.62,1.24-1.7
				c0-1.55,0.47-11.01,0.47-15.05C1489.84,528.74,1489.84,527.96,1489.22,527.96z"/>
			<path class="st1" d="M1563.23,626.46c-1.24,0-4.19-0.31-6.2-0.61c-4.04-0.62-4.5-3.1-4.96-6.99c-0.62-5.43-0.62-15.82-0.62-28.53
				v-23.27c0-20.48,0-24.2,0.16-28.39c0.3-4.65,1.08-6.51,4.8-7.29c1.55-0.31,2.49-0.31,3.41-0.31c0.46,0,1.09-0.61,1.09-1.08
				c0-0.78-0.62-1.09-2.17-1.09c-4.19,0-13.03,0.31-13.64,0.31c-0.78,0-9.31-0.31-13.81-0.31c-1.55,0-2.17,0.31-2.17,1.09
				c0,0.46,0.46,1.08,1.09,1.08c0.93,0,2.63,0.16,4.19,0.47c2.94,0.61,4.03,2.64,4.34,7.13c0.31,4.19,0.31,7.91,0.31,28.39v23.27
				c0,12.72-0.16,23.11-0.78,28.53c-0.47,3.88-0.94,6.36-3.57,6.99c-1.24,0.3-2.94,0.61-4.19,0.61c-0.78,0-1.08,0.62-1.08,1.09
				c0,0.78,0.78,1.09,2.17,1.09c4.19,0,12.73-0.46,13.5-0.46c0.61,0,9.46,0.46,17.06,0.46c1.55,0,2.17-0.46,2.17-1.09
				C1564.32,627.08,1564,626.46,1563.23,626.46z"/>
			<path class="st1" d="M1692.16,604.74c-0.94,0-1.09,0.47-1.4,1.86c-0.46,2.49-2.33,8.06-5.28,11.01
				c-5.43,5.43-12.25,6.2-22.49,6.2c-29.16,0-49.16-22.49-49.16-47.77c0-13.34,2.17-25.13,12.25-34.43
				c4.8-4.5,13.18-9.15,30.71-9.15c12.1,0,22.03,3.26,26.83,7.29c3.57,2.8,5.74,8.06,5.74,13.19c0,1.86,0.16,2.79,1.09,2.79
				c0.78,0,1.4-0.78,1.55-2.79c0.16-1.86,0.16-9.15,0.31-13.5c0.31-4.8,0.62-6.35,0.62-7.44c0-0.78-0.31-1.4-1.71-1.4
				c-4.5-0.15-8.84-1.09-13.96-2.01c-6.67-1.09-14.43-1.55-19.85-1.55c-20.94,0-33.35,6.2-41.57,14.12
				c-12.1,11.79-15.35,27.14-15.35,35.98c0,12.56,3.25,27.61,16.59,39.09c10.7,9.31,24.51,14.12,44.98,14.12
				c8.84,0,19.08-0.78,24.66-2.94c2.33-0.94,2.64-1.4,3.41-3.88c1.4-4.5,3.26-15.98,3.26-16.91
				C1693.4,605.68,1692.78,604.74,1692.16,604.74z"/>
			<path class="st1" d="M1767.71,571.39l-3.88-2.64c-13.49-9.15-17.68-13.96-17.68-22.33c0-9.31,8.22-14.28,18.14-14.28
				c12.25,0,16.75,4.96,17.69,6.51c0.78,1.4,1.86,4.96,2.01,6.51c0.15,1.09,0.31,1.71,1.24,1.71c0.94,0,1.09-0.94,1.09-2.95
				c0-8.99,0.62-13.34,0.62-13.96c0-0.78-0.31-0.94-1.4-0.94c-1.09,0-2.17,0-4.81-0.61c-3.25-0.78-8.68-1.56-14.12-1.56
				c-17.99,0-30.25,9.31-30.25,24.82c0,9.15,4.81,17.23,19.54,28.23l6.21,4.66c12.09,8.99,17.22,13.49,17.22,22.96
				c0,9.93-6.98,17.53-20.48,17.53c-9.15,0-19.39-3.41-21.56-13.03c-0.47-1.86-0.47-3.72-0.47-4.81s-0.46-1.55-1.24-1.55
				c-0.78,0-1.09,0.78-1.09,2.17c-0.15,2.17-0.78,7.44-0.78,13.96c0,3.57,0.16,4.04,2.02,4.96c5.58,2.64,13.49,3.56,19.85,3.56
				c7.44,0,15.97-0.93,21.72-4.65c9.77-6.35,12.72-14.73,12.72-22.49C1790.05,591.87,1784.31,582.72,1767.71,571.39z"/>
		</g>
	</g>
</g>
</svg>
